<?xml version="1.0" encoding="UTF-8" standalone="no"?>
<!-- Created with Inkscape (http://www.inkscape.org/) -->

<svg
   xmlns:dc="http://purl.org/dc/elements/1.1/"
   xmlns:cc="http://creativecommons.org/ns#"
   xmlns:rdf="http://www.w3.org/1999/02/22-rdf-syntax-ns#"
   xmlns:svg="http://www.w3.org/2000/svg"
   xmlns="http://www.w3.org/2000/svg"
   xmlns:sodipodi="http://sodipodi.sourceforge.net/DTD/sodipodi-0.dtd"
   xmlns:inkscape="http://www.inkscape.org/namespaces/inkscape"
   width="210mm"
   height="297mm"
   viewBox="0 0 744.09448819 1052.3622047"
   id="svg2"
   version="1.1"
   inkscape:version="0.91 r13725"
   sodipodi:docname="boneco.svg">
  <defs
     id="defs4" />
  <sodipodi:namedview
     id="base"
     pagecolor="#ffffff"
     bordercolor="#666666"
     borderopacity="1.0"
     inkscape:pageopacity="0.0"
     inkscape:pageshadow="2"
     inkscape:zoom="0.49497475"
     inkscape:cx="12.570273"
     inkscape:cy="412.25047"
     inkscape:document-units="px"
     inkscape:current-layer="layer1"
     showgrid="false"
     inkscape:window-width="1366"
     inkscape:window-height="706"
     inkscape:window-x="-8"
     inkscape:window-y="-8"
     inkscape:window-maximized="1" />
  <metadata
     id="metadata7">
    <rdf:RDF>
      <cc:Work
         rdf:about="">
        <dc:format>image/svg+xml</dc:format>
        <dc:type
           rdf:resource="http://purl.org/dc/dcmitype/StillImage" />
        <dc:title></dc:title>
      </cc:Work>
    </rdf:RDF>
  </metadata>
  <g
     inkscape:label="Camada 1"
     inkscape:groupmode="layer"
     id="layer1">
    <g
       id="g3365"
       transform="translate(-319.75975,329.03071)">
      <path
         style="fill:#f2ccab"
         d="m 652.28428,238.94034 c -15.3939,-1.86463 -25.74383,-4.17722 -40.23996,-8.99121 -50.93916,-16.91628 -95.70704,-57.40763 -116.80277,-105.64497 -5.09253,-11.64453 -9.24933,-26.348152 -11.88892,-42.054039 -1.27713,-7.599031 -1.40009,-10.156084 -1.40009,-29.114842 0,-13.84415 0.26097,-22.594587 0.78158,-26.206108 6.02097,-41.768656 24.02213,-76.638263 55.07279,-106.680189 26.47965,-25.619402 54.71545,-41.426012 88.73106,-49.672292 18.6958,-4.53236 24.02588,-5.06706 50.6049,-5.07659 25.4431,-0.009 30.84825,0.4717 47.55381,4.23021 31.83509,7.16245 60.85957,22.40735 86.19957,45.275716 33.36763,30.112983 53.01812,65.012862 59.96585,106.501192 2.64167,15.774758 2.64404,47.417392 0.005,62.653683 -6.40111,36.951929 -23.58926,69.410109 -51.73109,97.689229 -32.09243,32.24898 -69.94625,51.16525 -113.67818,56.80715 -8.0473,1.03819 -12.67325,1.23209 -28.01342,1.17425 -11.36018,-0.0428 -20.96465,-0.38305 -25.15981,-0.89119 z m 40.22812,-56.5551 c 16.39669,-1.74037 32.56338,-6.34224 46.68171,-13.28801 14.34079,-7.05522 25.51852,-15.31766 38.00156,-28.09032 18.54675,-18.97703 29.66409,-39.89657 34.00047,-63.978799 3.50337,-19.456071 2.52532,-45.447018 -2.27063,-60.340407 C 807.36712,11.848249 804.40447,4.0827585 803.89386,3.4990853 803.27202,2.7882611 545.45307,82.711728 545.05768,83.737893 c -0.1657,0.430033 0.95903,4.632047 2.49938,9.337808 4.91916,15.027949 12.64623,28.705079 23.06249,40.821259 22.55288,26.23349 52.22094,43.12307 83.10811,47.31221 16.17079,2.19319 26.30646,2.50054 38.78474,1.17607 z"
         id="path3379"
         inkscape:connector-curvature="0" />
      <path
         style="fill:#ecb78c"
         d="M 662.34823,239.23214 C 624.07048,236.78102 588.83341,223.87404 558.31311,201.12513 530.02793,180.0422 507.49675,152.08557 495.2693,122.90052 479.73712,85.82761 477.5238,37.702822 489.55594,-1.3265256 c 10.70164,-34.7135384 30.73538,-63.9839714 61.07468,-89.2335574 15.32644,-12.755287 31.4269,-22.465827 49.70124,-29.975907 41.67992,-17.12891 97.95755,-18.82652 141.96415,-4.28233 28.54382,9.43374 53.71934,25.350333 77.03559,48.703823 31.5482,31.598594 48.23525,67.0524404 52.75279,112.080257 1.02104,10.177079 0.35958,34.216099 -1.23497,44.881725 -5.84647,39.105775 -23.97797,73.218665 -54.91982,103.326985 -25.82814,25.13239 -54.74231,41.47212 -88.32088,49.91117 -7.83042,1.96796 -13.42961,2.87882 -30.28414,4.92652 -7.45188,0.90535 -22.76894,1.00169 -34.97635,0.21998 z m 35.57879,-56.88871 c 23.03909,-3.45071 43.69374,-11.76295 61.07522,-24.57905 30.50538,-22.4929 49.20968,-52.77969 53.6866,-86.931592 1.80964,-13.804697 0.98441,-36.738192 -1.74241,-48.421911 -2.07176,-8.877003 -6.12495,-19.880496 -7.32306,-19.880496 -0.58688,0 -205.60283,63.36305 -251.63727,77.772017 -6.39422,2.001418 -7.6811,2.601171 -7.6811,3.579779 0,2.530287 5.63822,18.124483 9.03128,24.978733 6.59958,13.33169 14.23789,23.54101 26.61132,35.56854 15.78847,15.34711 32.82428,25.8807 52.33791,32.3616 10.01288,3.3255 19.64792,5.10487 36.42321,6.72654 4.90489,0.47416 23.0931,-0.25675 29.2183,-1.17416 z"
         id="path3377"
         inkscape:connector-curvature="0" />
      <path
         style="fill:#edaa6f"
         d="m 660.877,238.89609 c -17.82361,-1.04892 -39.63799,-5.93239 -57.37377,-12.84396 -44.09601,-17.18408 -83.47715,-52.96724 -103.78019,-94.29853 -5.80476,-11.81687 -8.78045,-19.93645 -11.97306,-32.670109 -3.64313,-14.530564 -4.90055,-24.051328 -5.31257,-40.225039 -0.66899,-26.260827 1.84249,-43.926853 9.37818,-65.9670993 9.37518,-27.4203547 23.98641,-50.0761437 46.23469,-71.6902727 32.0005,-31.08838 66.38947,-47.82003 111.07916,-54.04458 9.49106,-1.32195 44.56034,-1.52556 53.61709,-0.31129 39.6435,5.31513 69.42071,17.66564 98.04269,40.664568 40.49591,32.540115 63.61882,72.181209 70.06328,120.114 4.49976,33.468411 -0.15883,68.354855 -12.99328,97.301942 -17.77603,40.09244 -53.75688,76.65052 -94.44896,95.96418 -19.01182,9.02357 -35.95099,14.03199 -57.35031,16.95681 -7.47449,1.0216 -34.8509,1.65742 -45.18295,1.04938 z m 31.92929,-55.64292 c 20.92728,-2.32179 40.64262,-8.92507 57.16832,-19.14745 8.53549,-5.27985 16.92016,-11.86701 24.68736,-19.3949 21.68219,-21.01416 33.76505,-43.91926 38.13827,-72.297484 0.80657,-5.233884 1.06221,-10.463714 1.04543,-21.386594 -0.0297,-19.320486 -1.545,-28.556423 -7.01768,-42.773188 C 805.8076,5.6028212 804.67627,3.1108372 804.31392,2.7158118 803.81114,2.1676824 773.05584,11.485809 674.44937,42.061699 603.38621,64.096957 544.91976,82.394598 544.52391,82.723114 c -1.77464,1.472825 5.49049,21.340606 11.89594,32.531546 14.27362,24.93736 40.78706,48.06012 67.32667,58.71654 12.61995,5.06728 21.02367,6.99629 41.34756,9.49102 4.02459,0.49402 22.64098,0.35358 27.71221,-0.20905 z"
         id="path3375"
         inkscape:connector-curvature="0" />
      <path
         style="fill:#e9964d"
         d="m 665.69652,238.91715 c -51.12669,-3.00407 -93.96046,-22.20527 -130.16014,-58.34718 -30.61963,-30.57076 -47.6001,-65.40806 -52.13065,-106.951756 -1.10217,-10.106509 -0.93323,-33.979062 0.31335,-44.279286 2.50047,-20.6608411 8.22654,-39.722405 17.4601,-58.123087 3.70666,-7.38664 10.2918,-18.535785 13.52444,-22.897915 20.20408,-27.263448 46.37438,-49.643726 73.27823,-62.665996 24.88517,-12.04516 47.20225,-17.64247 77.30655,-19.38912 19.00297,-1.10255 40.41583,0.50166 58.23881,4.36316 42.55787,9.22051 81.34069,33.996524 110.7583,70.756826 19.06429,23.822761 30.98342,51.6003745 36.06096,84.040277 1.20869,7.722187 1.365,10.901482 1.34765,27.410987 -0.0205,19.491386 -0.40699,24.275025 -2.99772,37.101276 -8.69019,43.023554 -34.64016,82.338264 -73.5977,111.501934 -32.75907,24.5235 -70.33919,37.09558 -112.23266,37.5464 -7.45519,0.0802 -15.18147,0.0503 -17.16952,-0.0665 z m 22.62166,-55.0939 c 34.16526,-2.71451 63.44474,-16.0139 87.2719,-39.64084 22.42856,-22.24008 34.80446,-47.047973 37.97049,-76.113017 0.81989,-7.526906 0.81938,-25.360602 -10e-4,-32.880424 C 812.91475,29.279925 811.30684,21.015633 809.7253,15.482825 808.1277,9.8937732 804.82022,2.2380534 803.92907,2.0664365 803.09909,1.9065973 548.06059,80.692502 544.99378,82.056129 c -1.24802,0.554925 -1.37059,0.902087 -1.01473,2.874063 0.85557,4.741035 5.34351,17.013198 8.7726,23.988498 6.44177,13.1035 13.64327,22.83031 25.68076,34.68606 10.69244,10.53102 17.42978,15.79557 28.7119,22.43546 7.8095,4.59612 14.58116,7.67805 23.82819,10.84469 9.65732,3.30714 16.80207,4.86219 27.7957,6.0497 15.19051,1.64084 18.73932,1.74757 29.54971,0.88865 z"
         id="path3373"
         inkscape:connector-curvature="0" />
      <path
         style="fill:#e68530"
         d="m 659.25717,238.04972 c -17.45682,-1.25374 -35.73001,-5.28261 -53.50336,-11.7964 -8.80945,-3.2286 -27.78476,-12.84111 -36.04813,-18.26126 -32.10145,-21.05615 -57.63789,-50.00335 -71.8759,-81.476 -6.08125,-13.44242 -11.01513,-31.046 -13.55968,-48.379551 -1.3394,-9.124003 -1.53841,-38.748406 -0.3258,-48.496361 5.39973,-43.407334 25.33229,-81.364369 58.93813,-112.234297 28.87653,-26.525621 62.60924,-42.943731 99.77566,-48.561981 11.94329,-1.80541 21.0897,-2.45171 34.78599,-2.45804 35.43267,-0.0164 64.00153,6.7238 93.28457,22.00844 32.66631,17.050569 64.1277,48.171078 80.81186,79.936272 15.67456,29.8429982 22.44221,64.112943 19.66209,99.564499 -1.72143,21.951333 -5.81527,38.692869 -13.94582,57.030679 -17.07307,38.50697 -51.5762,74.29939 -90.35046,93.72665 -17.36525,8.7006 -39.49006,15.9142 -53.91832,17.57959 -2.8164,0.32509 -8.64334,1.01037 -12.94875,1.52284 -8.33846,0.99253 -28.98935,1.14187 -40.78208,0.29492 z m 40.17595,-55.07395 c 29.53317,-4.71572 53.87199,-16.90022 75.22692,-37.66011 26.44274,-25.70592 38.50979,-52.548365 39.95025,-88.866965 0.63774,-16.07955 -1.99244,-35.76021 -6.11889,-45.785384 -0.40915,-0.9940247 -1.35918,-3.37075 -2.11118,-5.2816091 -0.752,-1.910859 -1.61249,-3.6258349 -1.91219,-3.8110669 -0.71918,-0.4444676 -259.62376,79.778502 -260.66773,80.769291 -0.94977,0.901394 0.41386,6.422593 3.94632,15.978298 6.47713,17.521296 16.37559,32.055936 32.27171,47.386936 16.27982,15.70107 33.01574,25.80833 54.05013,32.64229 7.44061,2.41742 12.40662,3.45023 21.98903,4.57318 4.30744,0.50478 8.645,1.03673 9.63903,1.18211 4.06228,0.59414 27.95665,-0.20405 33.7366,-1.12697 z"
         id="path3371"
         inkscape:connector-curvature="0" />
      <path
         style="fill:#e47d21"
         d="m 664.49164,238.03529 c -50.95009,-3.3858 -92.54053,-22.25289 -128.64859,-58.36016 -30.72903,-30.72836 -47.61962,-65.89431 -51.76668,-107.777452 -0.80444,-8.124508 -0.7883,-29.229407 0.0291,-38.040455 3.8615,-41.6244749 21.49653,-78.666953 51.9682,-109.159519 34.44604,-34.469664 73.25281,-52.830894 120.76671,-57.140194 11.93427,-1.08238 40.81084,-0.43681 51.32811,1.14751 43.82935,6.60242 78.91623,24.51738 110.481,56.410319 29.58873,29.89635 45.38303,61.836101 51.38996,103.92237 1.47473,10.332435 1.43627,40.35237 -0.0648,50.604898 -5.68349,38.818043 -23.07428,72.308793 -53.02461,102.113453 -26.73857,26.60853 -56.87296,43.54431 -92.72538,52.11246 -4.15602,0.99322 -8.58777,1.80792 -9.84834,1.81045 -1.26057,0.002 -6.22285,0.55299 -11.02731,1.22324 -10.33952,1.44245 -26.92443,1.92606 -38.85733,1.13308 z m 32.04903,-54.4996 c 30.25539,-3.96348 55.74485,-16.25678 78.19162,-37.71098 23.24165,-22.21393 36.26727,-48.382306 39.51307,-79.381469 1.10422,-10.545916 0.37555,-30.212594 -1.49752,-40.417729 -1.68143,-9.161016 -2.57965,-12.868404 -3.64895,-15.060981 C 808.69491,10.136177 807.74235,7.7538788 806.9821,5.6705414 806.22184,3.587198 805.16225,1.6497232 804.62746,1.3650405 803.76922,0.90818073 742.5913,19.672314 558.0105,77.005953 l -14.91037,4.631391 0.008,2.165437 c 0.01,2.713351 4.48555,16.119239 7.70251,23.070329 5.25015,11.34432 12.60802,22.29453 21.03645,31.30706 19.05038,20.37062 36.96334,32.1826 61.01674,40.23502 7.92978,2.65468 12.02997,3.59642 18.67561,4.28949 3.14775,0.32828 7.48531,0.82201 9.63903,1.09718 6.99691,0.89398 27.6957,0.73818 35.36245,-0.26617 z"
         id="path3369"
         inkscape:connector-curvature="0" />
      <path
         style="fill:#c76116"
         d="m 683.48927,209.64719 c -16.34061,-14.31495 -29.38425,-26.13583 -28.98586,-26.26863 0.39838,-0.13279 3.26156,0.0578 6.36262,0.42352 7.13343,0.84129 27.35584,0.8626 34.0646,0.0359 32.63428,-4.02146 60.77282,-18.12941 83.80299,-42.01666 21.17154,-21.95946 32.52258,-45.844271 35.5146,-74.729644 0.9228,-8.908859 0.39655,-30.964372 -0.92156,-38.623266 -0.5386,-3.129528 -0.90059,-6.098614 -0.80442,-6.597969 0.11094,-0.576059 9.9728,7.642448 26.9807,22.484714 34.85946,30.420761 31.46037,27.012828 30.98599,31.066479 -0.78059,6.67031 -3.29167,19.173467 -5.36847,26.730656 -13.88854,50.53848 -55.97525,97.75556 -107.46171,120.56131 -12.03502,5.33088 -37.19799,12.92736 -42.90831,12.95365 -1.18868,0.005 -8.491,-6.07257 -31.26117,-26.02004 z"
         id="path3367"
         inkscape:connector-curvature="0" />
    </g>
  </g>
</svg>
